PathFileType	4	(X/Y/Z)	./resultDataOpenSim/trcMotMarkerGrf/sub10/qtm-01-06.trc
DataRate	CameraRate	NumFrames	NumMarkers	Units	OrigDataRate	OrigDataStartFrame	OrigNumFrames
250.000000	250.000000	14	24	m	250.000000	1	464
Frame#	Time	L.Toe.Tip			R.Toe.Tip			L.Ankle.Lat			R.Ankle.Lat			L.Ankle.Med			R.Ankle.Med			L.Heel			R.Heel			L.Knee.Lat			R.Knee.Lat			L.Knee.Med			R.Knee.Med			L.Thigh.Upper			R.Thigh.Upper			L.ASIS			R.ASIS			V.Sacral			L.Acromium			R.Acromium			C7			L.Elbow			R.Elbow			L.Wrist.Lat			R.Wrist.Lat
		X1	Y1	Z1	X2	Y2	Z2	X3	Y3	Z3	X4	Y4	Z4	X5	Y5	Z5	X6	Y6	Z6	X7	Y7	Z7	X8	Y8	Z8	X9	Y9	Z9	X10	Y10	Z10	X11	Y11	Z11	X12	Y12	Z12	X13	Y13	Z13	X14	Y14	Z14	X15	Y15	Z15	X16	Y16	Z16	X17	Y17	Z17	X18	Y18	Z18	X19	Y19	Z19	X20	Y20	Z20	X21	Y21	Z21	X22	Y22	Z22	X23	Y23	Z23	X24	Y24	Z24

1	0	-1.4874134	0.039036	-0.20184213	-0.88783626	0.10719668	0.0034770086	-1.6171593	0.068431991	-0.2420845	-1.0246018	0.073574134	0.01818095	-1.6195944	0.088608591	-0.15791719	-1.0084414	0.11176456	-0.060251766	-1.6903698	0.044665181	-0.21430603	-1.0531812	0.033789063	-0.038424324	-1.4778727	0.43048446	-0.25499509	-1.1707713	0.44713247	0.050963229	-1.4859876	0.40597825	-0.13475029	-1.1499993	0.45619062	-0.077437208	-1.3688347	0.81074058	-0.29617994	-1.3245644	0.83088068	0.090134903	-1.2930603	0.9113777	-0.23543629	-1.2668996	0.91958273	0.010396324	-1.4779207	0.93319256	-0.086714588	-1.2780793	1.3755582	-0.26395175	-1.3467032	1.3826227	0.054792015	-1.3903671	1.4186003	-0.12553906	-1.3237778	1.0254821	-0.31759247	-1.5277571	1.0820581	0.072228106	-1.1133452	0.89230231	-0.28807423	-1.4552314	0.86264647	0.15849417
2	0.004	-1.4874129	0.039024363	-0.20179252	-0.87695191	0.10996354	0.0036592972	-1.616927	0.069346137	-0.24298981	-1.0133883	0.074462372	0.021319266	-1.6190834	0.089248061	-0.15727111	-0.99882016	0.11232199	-0.057640023	-1.6903269	0.045696158	-0.21351938	-1.0422795	0.033891681	-0.034442783	-1.4747518	0.43005007	-0.25467695	-1.1637062	0.44664935	0.052975564	-1.4828012	0.40556511	-0.13436172	-1.1451732	0.45444222	-0.075789162	-1.364292	0.8097353	-0.29586625	-1.3181882	0.82967487	0.090596635	-1.2885444	0.91035339	-0.23531879	-1.2611614	0.91845915	0.010524086	-1.4725866	0.93156969	-0.085550623	-1.273324	1.3741358	-0.26368023	-1.3413298	1.3813239	0.055214893	-1.3853297	1.4173801	-0.12493835	-1.317884	1.0237652	-0.31645378	-1.5229339	1.0811411	0.072810121	-1.1063535	0.89242951	-0.28598961	-1.4516989	0.86128311	0.1587974
3	0.008	-1.4874473	0.039034198	-0.20172088	-0.86616331	0.11263902	0.0039520121	-1.6167063	0.070142669	-0.24334854	-1.0024758	0.075286285	0.024456858	-1.6185444	0.089843503	-0.15660824	-0.98941018	0.11281087	-0.055011256	-1.6902604	0.046788979	-0.21273195	-1.0316658	0.034000677	-0.030424049	-1.4716201	0.42962514	-0.254296	-1.1566017	0.44620341	0.054973741	-1.4795918	0.40511283	-0.13389835	-1.1402706	0.45272601	-0.074143504	-1.3597357	0.80873021	-0.29552732	-1.3116753	0.82848243	0.091057026	-1.2839613	0.90932247	-0.23521858	-1.2553712	0.91735553	0.010645664	-1.4672946	0.92994522	-0.084465688	-1.2685632	1.3727216	-0.2634123	-1.3359075	1.3800807	0.055628655	-1.3803083	1.4161554	-0.12438863	-1.3120052	1.0220859	-0.31526326	-1.5179775	1.0801908	0.07337829	-1.0994224	0.89256984	-0.28397746	-1.4480964	0.85991721	0.15911157
4	0.012	-1.4875245	0.039072396	-0.20162699	-0.8556895	0.11504485	0.0043524024	-1.6164844	0.070826465	-0.24308791	-0.99208411	0.075963216	0.027569656	-1.6180116	0.090410686	-0.15597133	-0.9803616	0.11317402	-0.052345842	-1.6901584	0.047975517	-0.21193704	-1.0215292	0.034086736	-0.026380161	-1.4684698	0.42921662	-0.25382094	-1.1495129	0.44579986	0.056917617	-1.4763127	0.40461127	-0.13334005	-1.1352432	0.45106838	-0.072502902	-1.3551473	0.80773083	-0.29517282	-1.3050527	0.82730585	0.091511355	-1.2792802	0.9082766	-0.23514027	-1.2495046	0.91627318	0.010764186	-1.4620418	0.92833736	-0.083478288	-1.2637829	1.3713299	-0.26313411	-1.3304009	1.378924	0.056036276	-1.3752927	1.4149305	-0.12388777	-1.3061562	1.0204774	-0.31401785	-1.5126824	1.0791387	0.073876557	-1.0925894	0.89271394	-0.2820742	-1.4443742	0.85856081	0.15944378
5	0.016	-1.4876054	0.039123391	-0.20153905	-0.84585311	0.11694961	0.0047549239	-1.6162452	0.071480875	-0.24246761	-0.98235863	0.076411457	0.030613431	-1.617548	0.091027699	-0.15542096	-0.9717537	0.11339069	-0.049633119	-1.6900082	0.049257024	-0.21111384	-1.0119703	0.034117255	-0.022381799	-1.4652764	0.42882786	-0.25327301	-1.1424882	0.44544533	0.0587774	-1.4728905	0.40408263	-0.1327107	-1.1300764	0.44949423	-0.070868882	-1.3505211	0.80674228	-0.29480659	-1.2984099	0.82615272	0.091965703	-1.2745276	0.90721354	-0.23507826	-1.2435629	0.91520456	0.01088832	-1.4567916	0.92677691	-0.082546366	-1.2589687	1.3699823	-0.26282512	-1.3248034	1.3778514	0.056446907	-1.3702701	1.4137182	-0.1234072	-1.3003508	1.0189557	-0.31273774	-1.5069281	1.0779357	0.074246298	-1.0858564	0.89284179	-0.28027404	-1.4405453	0.8572355	0.15978668
6	0.02	-1.4876361	0.039160549	-0.20148548	-0.83683675	0.11822108	0.0051552706	-1.6159759	0.072170662	-0.24173837	-0.97332682	0.076607311	0.033575671	-1.6171515	0.091750255	-0.15495544	-0.96360039	0.11347369	-0.046879777	-1.6897889	0.050621903	-0.21023158	-1.0030272	0.0340825	-0.01850136	-1.4619987	0.42846374	-0.25270644	-1.1354538	0.44517985	0.060565184	-1.4693121	0.40357129	-0.1320345	-1.1247433	0.44803221	-0.069239291	-1.3458537	0.80577072	-0.29441792	-1.2917471	0.8250433	0.092447602	-1.2697459	0.90613304	-0.23502686	-1.2375446	0.91414839	0.011031777	-1.4514997	0.92527641	-0.081616858	-1.2541097	1.3686984	-0.26247542	-1.319128	1.3768307	0.056872036	-1.3652296	1.4125293	-0.12292468	-1.2945731	1.0175078	-0.31140388	-1.5008389	1.0766369	0.07454307	-1.0791656	0.89296088	-0.27852573	-1.4366967	0.85595256	0.16012315
7	0.024	-1.4876012	0.039161287	-0.20145747	-0.82857702	0.118895	0.0056946243	-1.6156628	0.072923303	-0.24102988	-0.96489773	0.076602956	0.036489283	-1.6167376	0.092557872	-0.15451477	-0.95589103	0.11342995	-0.044114275	-1.6894945	0.052060589	-0.20929671	-0.99471287	0.033974681	-0.014766516	-1.4586164	0.42813275	-0.2521576	-1.1283103	0.44504791	0.062303422	-1.4656556	0.40312101	-0.13132795	-1.119207	0.44671078	-0.067614072	-1.3411458	0.80482554	-0.29400482	-1.2850425	0.8240073	0.092983978	-1.2649464	0.90503355	-0.23498154	-1.2314547	0.91311061	0.011209496	-1.4461508	0.92382108	-0.080675733	-1.2492045	1.3674897	-0.26208642	-1.3133993	1.3758309	0.057318257	-1.3601626	1.4113708	-0.12242283	-1.2887844	1.016108	-0.30995841	-1.4946992	1.0753708	0.0749166	-1.0724468	0.89310237	-0.27676894	-1.4329413	0.85470257	0.160433
8	0.028	-1.4875304	0.039110252	-0.2014127	-0.82090531	0.11908199	0.0064458247	-1.6152998	0.073748281	-0.2403958	-0.95696883	0.076464236	0.039386309	-1.6162179	0.093409619	-0.1540542	-0.94861761	0.11323671	-0.041368554	-1.6891651	0.053588452	-0.20841626	-0.98703974	0.033767597	-0.011158883	-1.4551399	0.42783569	-0.25162253	-1.1210325	0.44506141	0.063992296	-1.461979	0.40273162	-0.13061165	-1.1134625	0.44554198	-0.065999588	-1.3364062	0.80391321	-0.29357008	-1.2783415	0.82307312	0.093574643	-1.2600917	0.90391993	-0.23493157	-1.2253133	0.91209716	0.011424629	-1.4407686	0.92238753	-0.079751694	-1.2442434	1.366353	-0.26166168	-1.3076405	1.3748554	0.057785224	-1.3550659	1.4102505	-0.12189158	-1.2829561	1.0147476	-0.30836131	-1.4886989	1.0742192	0.075440004	-1.0656982	0.89327397	-0.27499956	-1.4293253	0.85345948	0.16069527
9	0.032	-1.487459	0.03900761	-0.20132123	-0.81372995	0.11885932	0.007355542	-1.6148926	0.074642052	-0.23987707	-0.94951747	0.076210743	0.042267089	-1.6155594	0.094302042	-0.15358558	-0.94178961	0.11285525	-0.038658324	-1.6889064	0.055277949	-0.20785243	-0.98002593	0.033428262	-0.0076502153	-1.4515807	0.42756177	-0.25109195	-1.1136501	0.44519691	0.065608843	-1.4582615	0.40235269	-0.12990533	-1.1075385	0.4445251	-0.06441542	-1.3316355	0.80303676	-0.2931155	-1.2717077	0.8222549	0.094206093	-1.2551215	0.90280742	-0.23485786	-1.2191465	0.91111625	0.011671118	-1.4353901	0.92096587	-0.078881267	-1.2392098	1.3652731	-0.26120203	-1.301871	1.3739311	0.058273654	-1.3499413	1.4091775	-0.12133099	-1.2770993	1.0134518	-0.30664217	-1.4828622	1.0731922	0.076060776	-1.05899	0.89345449	-0.27327346	-1.4257829	0.85220654	0.16090614
10	0.036	-1.4873947	0.038879925	-0.20120176	-0.80708672	0.11824952	0.0083644615	-1.6144625	0.07559885	-0.23950934	-0.9425843	0.075821688	0.045117249	-1.6147793	0.095259166	-0.1531572	-0.93543742	0.11225611	-0.0359887	-1.6888864	0.057265386	-0.2080194	-0.97368634	0.032941845	-0.0042290013	-1.4479229	0.42730068	-0.25057577	-1.1061772	0.44542476	0.067136913	-1.4544246	0.40194416	-0.12922348	-1.1014474	0.44367097	-0.062889756	-1.3268195	0.80219556	-0.29263378	-1.2651618	0.82155319	0.094882748	-1.2499961	0.90171233	-0.23473986	-1.2129655	0.91018205	0.011952132	-1.4300266	0.91956448	-0.078070748	-1.2341163	1.364242	-0.26071173	-1.2960996	1.3730732	0.058781391	-1.3447889	1.4081587	-0.12073639	-1.2712574	1.012264	-0.30488599	-1.4771923	1.072314	0.076729213	-1.0523836	0.89363427	-0.2716357	-1.4221688	0.85096132	0.16109727
11	0.04	-1.4873201	0.038765115	-0.20110332	-0.80105091	0.11725258	0.0094556321	-1.6140307	0.076625508	-0.23930418	-0.93622418	0.075269568	0.047923885	-1.6139129	0.096298498	-0.15281768	-0.92958713	0.11143001	-0.03337153	-1.6891951	0.059638866	-0.20915967	-0.9680192	0.032311601	-0.00088753214	-1.4441364	0.42705424	-0.25007987	-1.0985449	0.44575223	0.068604776	-1.4503826	0.40152057	-0.12857981	-1.0951594	0.44300825	-0.061437988	-1.3219414	0.80139175	-0.29210816	-1.2586977	0.82096579	0.095625937	-1.2447124	0.90064333	-0.23456095	-1.2067603	0.90931071	0.01228734	-1.4246396	0.91820312	-0.077278084	-1.2290093	1.3632705	-0.260202	-1.2903296	1.3722773	0.059302506	-1.3396039	1.4071969	-0.12009585	-1.2654706	1.0112135	-0.30316401	-1.4717597	1.0716709	0.07751498	-1.0458883	0.89382279	-0.27007682	-1.4183483	0.84976444	0.16131886
12	0.044	-1.4872182	0.03868552	-0.20105879	-0.79564511	0.11587453	0.010643585	-1.6135564	0.077749856	-0.2392382	-0.93048784	0.074539146	0.050669054	-1.6129886	0.097422951	-0.15259222	-0.9242364	0.11038178	-0.030827528	-1.6895653	0.062219461	-0.21068941	-0.9630064	0.031541122	0.0023844205	-1.4402138	0.42683604	-0.24959835	-1.0906601	0.4462131	0.070065562	-1.4461518	0.40111693	-0.12797681	-1.0886273	0.44256745	-0.060052865	-1.3169769	0.80064038	-0.2915193	-1.2523001	0.82049561	0.096454705	-1.2392941	0.89960176	-0.23431153	-1.2005099	0.90851587	0.012703475	-1.4191252	0.91690898	-0.076402881	-1.22392	1.3623755	-0.25967628	-1.284576	1.3715388	0.059840038	-1.3343819	1.4062909	-0.11940819	-1.2597597	1.0103087	-0.30150536	-1.4666122	1.0713358	0.078553792	-1.0394912	0.89402596	-0.26856298	-1.414295	0.84864936	0.16160232
13	0.048	-1.4870834	0.038643772	-0.20107255	-0.7908345	0.11413438	0.011958738	-1.6129145	0.079015624	-0.23925289	-0.92540944	0.07363265	0.053326286	-1.6120285	0.098635742	-0.15247932	-0.9193731	0.10912055	-0.028375718	-1.6894097	0.064587252	-0.21127702	-0.95862973	0.030630731	0.0055725417	-1.4361843	0.4266551	-0.24913217	-1.0826059	0.44678371	0.071515717	-1.4418784	0.40074128	-0.12739766	-1.0818275	0.44236481	-0.058720729	-1.3118859	0.79996121	-0.29083894	-1.2459489	0.8201494	0.097374669	-1.2337775	0.89858681	-0.23399252	-1.1942044	0.90780561	0.013217906	-1.4133102	0.91571322	-0.075283449	-1.2188386	1.3615634	-0.25912212	-1.2788418	1.3708636	0.060406649	-1.3291237	1.4054401	-0.11868022	-1.2541305	1.0095483	-0.29991087	-1.461613	1.0712279	0.079831731	-1.0331884	0.89424298	-0.26708022	-1.4100896	0.84763132	0.16195004
14	0.052	-1.4869113	0.038635936	-0.20113939	-0.78657436	0.11205848	0.013428479	-1.6120123	0.080443003	-0.23929639	-0.92096403	0.072578024	0.055880248	-1.6110675	0.099946117	-0.15246626	-0.91500389	0.10765484	-0.026028754	-1.6884272	0.066534865	-0.21023702	-0.95488256	0.029584396	0.0086276348	-1.4320848	0.42650833	-0.24868809	-1.0747169	0.44733667	0.072862399	-1.4376775	0.40038901	-0.12682612	-1.0747973	0.44239412	-0.057446843	-1.3066396	0.79936224	-0.29004896	-1.2396455	0.81992934	0.098373435	-1.2281893	0.89760188	-0.23360914	-1.1878651	0.90718196	0.013831749	-1.4070385	0.91464013	-0.073787317	-1.2137423	1.3608327	-0.25852597	-1.2730978	1.3702591	0.061013727	-1.3238289	1.4046452	-0.11790077	-1.2485636	1.0089138	-0.29834285	-1.4564533	1.0711154	0.081105401	-1.0269776	0.89447086	-0.2656361	-1.4058161	0.84671154	0.16235252
